<?xml version="1.0" encoding="UTF-8"?>
<svg xmlns="http://www.w3.org/2000/svg" xmlns:xlink="http://www.w3.org/1999/xlink" width="900" height="1500" viewBox="0 0 900 1500">
  <defs>
    <linearGradient id="paper" x1="0" y1="0" x2="0" y2="1">
      <stop offset="0%" stop-color="#f7f0e4"/>
      <stop offset="100%" stop-color="#ebe0cf"/>
    </linearGradient>
    <pattern id="wood" width="60" height="24" patternUnits="userSpaceOnUse">
      <rect width="60" height="24" fill="#3a2418"/>
      <path d="M0 12 Q15 6 30 12 T60 12" fill="none" stroke="#4d3222" stroke-width="3"/>
    </pattern>
  </defs>
  <rect width="900" height="1500" fill="url(#wood)"/>
  <rect x="28" y="28" width="844" height="1444" rx="6" fill="url(#paper)" stroke="#d4c2a8" stroke-width="3"/>
  <rect x="40" y="40" width="820" height="1420" fill="none" stroke="#c9a27a" stroke-width="1.5" stroke-dasharray="4 3"/>
  <image href="../brand/brewing-cottage-logo.png" x="60" y="58" width="92" height="92" preserveAspectRatio="xMidYMid meet"/>
  <text x="170" y="95" font-family="Georgia, serif" font-size="34" font-weight="700" fill="#3d2418">The Brewing Cottage</text>
  <text x="170" y="122" font-family="Helvetica, Arial, sans-serif" font-size="14" fill="#7a5a45">Coffee · Comfort Food · Cottage Vibes</text>
  <rect x="520" y="62" width="310" height="78" rx="6" fill="#8b3a2a"/>
  <text x="675" y="92" text-anchor="middle" font-family="Helvetica, Arial, sans-serif" font-size="13" fill="#f7f0e4">+92 312 8671544</text>
  <text x="675" y="114" text-anchor="middle" font-family="Helvetica, Arial, sans-serif" font-size="10.5" fill="#f0dcc8">Shop No. 02, Sector B, Family B Park, DHA </text>
  <text x="675" y="130" text-anchor="middle" font-family="Helvetica, Arial, sans-serif" font-size="10.5" fill="#f0dcc8">Phase 2, Islamabad</text>
  <text x="70" y="210" font-family="'Brush Script MT', 'Segoe Script', Georgia, cursive" font-size="34" fill="#8b3a2a">Pasta</text><line x1="70" y1="220" x2="830" y2="220" stroke="#c9a27a" stroke-width="1.5"/><text x="70" y="256" font-family="Georgia, 'Times New Roman', serif" font-size="15" fill="#2a1c14">Rigatoni Pasta</text><text x="430" y="256" text-anchor="end" font-family="Helvetica, Arial, sans-serif" font-size="15" font-weight="700" fill="#6b3e2e">Rs 950</text><line x1="183.60000000000002" y1="254" x2="370.8" y2="254" stroke="#c4a484" stroke-width="1" stroke-dasharray="2 3"/><text x="70" y="282" font-family="Georgia, 'Times New Roman', serif" font-size="15" fill="#2a1c14">Fettuccine Alfredo</text><text x="430" y="282" text-anchor="end" font-family="Helvetica, Arial, sans-serif" font-size="15" font-weight="700" fill="#6b3e2e">Rs 1000</text><line x1="213.20000000000002" y1="280" x2="362.6" y2="280" stroke="#c4a484" stroke-width="1" stroke-dasharray="2 3"/><text x="470" y="256" font-family="Georgia, 'Times New Roman', serif" font-size="15" fill="#2a1c14">Penne Pomodoro</text><text x="830" y="256" text-anchor="end" font-family="Helvetica, Arial, sans-serif" font-size="15" font-weight="700" fill="#6b3e2e">Rs 900</text><line x1="583.6" y1="254" x2="770.8" y2="254" stroke="#c4a484" stroke-width="1" stroke-dasharray="2 3"/><rect x="70" y="322" width="220" height="110" rx="8" fill="#e8dcc8" stroke="#c9a27a"/><image href="https://images.unsplash.com/photo-1621996346565-e3dbc646d9a9?auto=format&amp;fit=crop&amp;w=440&amp;h=220&amp;q=60" x="70" y="322" width="220" height="110" preserveAspectRatio="xMidYMid slice"/><rect x="320" y="322" width="220" height="110" rx="8" fill="#e8dcc8" stroke="#c9a27a"/><image href="https://images.unsplash.com/photo-1645112411341-6c4fd023714a?auto=format&amp;fit=crop&amp;w=440&amp;h=220&amp;q=60" x="320" y="322" width="220" height="110" preserveAspectRatio="xMidYMid slice"/><rect x="570" y="322" width="220" height="110" rx="8" fill="#e8dcc8" stroke="#c9a27a"/><image href="https://images.unsplash.com/photo-1551183053-bf91a1d81141?auto=format&amp;fit=crop&amp;w=440&amp;h=220&amp;q=60" x="570" y="322" width="220" height="110" preserveAspectRatio="xMidYMid slice"/><text x="70" y="484" font-family="'Brush Script MT', 'Segoe Script', Georgia, cursive" font-size="34" fill="#8b3a2a">Hot Coffee</text><line x1="70" y1="494" x2="830" y2="494" stroke="#c9a27a" stroke-width="1.5"/><text x="70" y="530" font-family="Georgia, 'Times New Roman', serif" font-size="15" fill="#2a1c14">Americano</text><text x="430" y="530" text-anchor="end" font-family="Helvetica, Arial, sans-serif" font-size="15" font-weight="700" fill="#6b3e2e">Rs 350</text><line x1="146.60000000000002" y1="528" x2="370.8" y2="528" stroke="#c4a484" stroke-width="1" stroke-dasharray="2 3"/><text x="70" y="556" font-family="Georgia, 'Times New Roman', serif" font-size="15" fill="#2a1c14">Cappuccino</text><text x="430" y="556" text-anchor="end" font-family="Helvetica, Arial, sans-serif" font-size="15" font-weight="700" fill="#6b3e2e">Rs 450</text><line x1="154" y1="554" x2="370.8" y2="554" stroke="#c4a484" stroke-width="1" stroke-dasharray="2 3"/><text x="70" y="582" font-family="Georgia, 'Times New Roman', serif" font-size="15" fill="#2a1c14">Latte</text><text x="430" y="582" text-anchor="end" font-family="Helvetica, Arial, sans-serif" font-size="15" font-weight="700" fill="#6b3e2e">Rs 480</text><line x1="117" y1="580" x2="370.8" y2="580" stroke="#c4a484" stroke-width="1" stroke-dasharray="2 3"/><text x="470" y="530" font-family="Georgia, 'Times New Roman', serif" font-size="15" fill="#2a1c14">Doppio Espresso</text><text x="830" y="530" text-anchor="end" font-family="Helvetica, Arial, sans-serif" font-size="15" font-weight="700" fill="#6b3e2e">Rs 320</text><line x1="591" y1="528" x2="770.8" y2="528" stroke="#c4a484" stroke-width="1" stroke-dasharray="2 3"/><text x="470" y="556" font-family="Georgia, 'Times New Roman', serif" font-size="15" fill="#2a1c14">Spanish Latte</text><text x="830" y="556" text-anchor="end" font-family="Helvetica, Arial, sans-serif" font-size="15" font-weight="700" fill="#6b3e2e">Rs 520</text><line x1="576.2" y1="554" x2="770.8" y2="554" stroke="#c4a484" stroke-width="1" stroke-dasharray="2 3"/><text x="470" y="582" font-family="Georgia, 'Times New Roman', serif" font-size="15" fill="#2a1c14">Irish Latte</text><text x="830" y="582" text-anchor="end" font-family="Helvetica, Arial, sans-serif" font-size="15" font-weight="700" fill="#6b3e2e">Rs 550</text><line x1="561.4" y1="580" x2="770.8" y2="580" stroke="#c4a484" stroke-width="1" stroke-dasharray="2 3"/><rect x="70" y="622" width="220" height="110" rx="8" fill="#e8dcc8" stroke="#c9a27a"/><image href="https://images.unsplash.com/photo-1514432324607-a09d9b4aefdd?auto=format&amp;fit=crop&amp;w=440&amp;h=220&amp;q=60" x="70" y="622" width="220" height="110" preserveAspectRatio="xMidYMid slice"/><rect x="320" y="622" width="220" height="110" rx="8" fill="#e8dcc8" stroke="#c9a27a"/><image href="https://images.unsplash.com/photo-1572442388796-11668a67e53d?auto=format&amp;fit=crop&amp;w=440&amp;h=220&amp;q=60" x="320" y="622" width="220" height="110" preserveAspectRatio="xMidYMid slice"/><rect x="570" y="622" width="220" height="110" rx="8" fill="#e8dcc8" stroke="#c9a27a"/><image href="https://images.unsplash.com/photo-1561882468-9110e03e0f78?auto=format&amp;fit=crop&amp;w=440&amp;h=220&amp;q=60" x="570" y="622" width="220" height="110" preserveAspectRatio="xMidYMid slice"/><text x="70" y="784" font-family="'Brush Script MT', 'Segoe Script', Georgia, cursive" font-size="34" fill="#8b3a2a">Cold Coffee</text><line x1="70" y1="794" x2="830" y2="794" stroke="#c9a27a" stroke-width="1.5"/><text x="70" y="830" font-family="Georgia, 'Times New Roman', serif" font-size="15" fill="#2a1c14">Vanilla Latte</text><text x="430" y="830" text-anchor="end" font-family="Helvetica, Arial, sans-serif" font-size="15" font-weight="700" fill="#6b3e2e">Rs 520</text><line x1="176.2" y1="828" x2="370.8" y2="828" stroke="#c4a484" stroke-width="1" stroke-dasharray="2 3"/><text x="70" y="856" font-family="Georgia, 'Times New Roman', serif" font-size="15" fill="#2a1c14">Caramel Latte</text><text x="430" y="856" text-anchor="end" font-family="Helvetica, Arial, sans-serif" font-size="15" font-weight="700" fill="#6b3e2e">Rs 540</text><line x1="176.2" y1="854" x2="370.8" y2="854" stroke="#c4a484" stroke-width="1" stroke-dasharray="2 3"/><text x="70" y="882" font-family="Georgia, 'Times New Roman', serif" font-size="15" fill="#2a1c14">Hazelnut Latte</text><text x="430" y="882" text-anchor="end" font-family="Helvetica, Arial, sans-serif" font-size="15" font-weight="700" fill="#6b3e2e">Rs 540</text><line x1="183.60000000000002" y1="880" x2="370.8" y2="880" stroke="#c4a484" stroke-width="1" stroke-dasharray="2 3"/><text x="470" y="830" font-family="Georgia, 'Times New Roman', serif" font-size="15" fill="#2a1c14">Spanish Latte</text><text x="830" y="830" text-anchor="end" font-family="Helvetica, Arial, sans-serif" font-size="15" font-weight="700" fill="#6b3e2e">Rs 560</text><line x1="576.2" y1="828" x2="770.8" y2="828" stroke="#c4a484" stroke-width="1" stroke-dasharray="2 3"/><text x="470" y="856" font-family="Georgia, 'Times New Roman', serif" font-size="15" fill="#2a1c14">Irish Latte</text><text x="830" y="856" text-anchor="end" font-family="Helvetica, Arial, sans-serif" font-size="15" font-weight="700" fill="#6b3e2e">Rs 580</text><line x1="561.4" y1="854" x2="770.8" y2="854" stroke="#c4a484" stroke-width="1" stroke-dasharray="2 3"/><rect x="70" y="922" width="220" height="110" rx="8" fill="#e8dcc8" stroke="#c9a27a"/><image href="https://images.unsplash.com/photo-1517701604599-bb29b565090c?auto=format&amp;fit=crop&amp;w=440&amp;h=220&amp;q=60" x="70" y="922" width="220" height="110" preserveAspectRatio="xMidYMid slice"/><rect x="320" y="922" width="220" height="110" rx="8" fill="#e8dcc8" stroke="#c9a27a"/><image href="https://images.unsplash.com/photo-1461023058943-07fcbe16d735?auto=format&amp;fit=crop&amp;w=440&amp;h=220&amp;q=60" x="320" y="922" width="220" height="110" preserveAspectRatio="xMidYMid slice"/><rect x="570" y="922" width="220" height="110" rx="8" fill="#e8dcc8" stroke="#c9a27a"/><image href="https://images.unsplash.com/photo-1461023058943-07fcbe16d735?auto=format&amp;fit=crop&amp;w=440&amp;h=220&amp;q=60" x="570" y="922" width="220" height="110" preserveAspectRatio="xMidYMid slice"/><text x="70" y="1084" font-family="'Brush Script MT', 'Segoe Script', Georgia, cursive" font-size="34" fill="#8b3a2a">Mocktails</text><line x1="70" y1="1094" x2="830" y2="1094" stroke="#c9a27a" stroke-width="1.5"/><text x="70" y="1130" font-family="Georgia, 'Times New Roman', serif" font-size="15" fill="#2a1c14">Raspberry Mocktail</text><text x="430" y="1130" text-anchor="end" font-family="Helvetica, Arial, sans-serif" font-size="15" font-weight="700" fill="#6b3e2e">Rs 550</text><line x1="213.20000000000002" y1="1128" x2="370.8" y2="1128" stroke="#c4a484" stroke-width="1" stroke-dasharray="2 3"/><text x="70" y="1156" font-family="Georgia, 'Times New Roman', serif" font-size="15" fill="#2a1c14">Strawberry Mocktail</text><text x="430" y="1156" text-anchor="end" font-family="Helvetica, Arial, sans-serif" font-size="15" font-weight="700" fill="#6b3e2e">Rs 550</text><line x1="220.6" y1="1154" x2="370.8" y2="1154" stroke="#c4a484" stroke-width="1" stroke-dasharray="2 3"/><text x="470" y="1130" font-family="Georgia, 'Times New Roman', serif" font-size="15" fill="#2a1c14">Blueberry Mocktail</text><text x="830" y="1130" text-anchor="end" font-family="Helvetica, Arial, sans-serif" font-size="15" font-weight="700" fill="#6b3e2e">Rs 550</text><line x1="613.2" y1="1128" x2="770.8" y2="1128" stroke="#c4a484" stroke-width="1" stroke-dasharray="2 3"/><text x="470" y="1156" font-family="Georgia, 'Times New Roman', serif" font-size="15" fill="#2a1c14">Passion Fruit Mocktail</text><text x="830" y="1156" text-anchor="end" font-family="Helvetica, Arial, sans-serif" font-size="15" font-weight="700" fill="#6b3e2e">Rs 580</text><line x1="642.8" y1="1154" x2="770.8" y2="1154" stroke="#c4a484" stroke-width="1" stroke-dasharray="2 3"/><rect x="70" y="1196" width="220" height="110" rx="8" fill="#e8dcc8" stroke="#c9a27a"/><image href="https://images.unsplash.com/photo-1536935338788-846bb9981813?auto=format&amp;fit=crop&amp;w=440&amp;h=220&amp;q=60" x="70" y="1196" width="220" height="110" preserveAspectRatio="xMidYMid slice"/><rect x="320" y="1196" width="220" height="110" rx="8" fill="#e8dcc8" stroke="#c9a27a"/><image href="https://images.unsplash.com/photo-1551024506-0bccd828d307?auto=format&amp;fit=crop&amp;w=440&amp;h=220&amp;q=60" x="320" y="1196" width="220" height="110" preserveAspectRatio="xMidYMid slice"/><rect x="570" y="1196" width="220" height="110" rx="8" fill="#e8dcc8" stroke="#c9a27a"/><image href="https://images.unsplash.com/photo-1497534446932-c925b458314e?auto=format&amp;fit=crop&amp;w=440&amp;h=220&amp;q=60" x="570" y="1196" width="220" height="110" preserveAspectRatio="xMidYMid slice"/><text x="70" y="1358" font-family="'Brush Script MT', 'Segoe Script', Georgia, cursive" font-size="34" fill="#8b3a2a">Mojitos</text><line x1="70" y1="1368" x2="830" y2="1368" stroke="#c9a27a" stroke-width="1.5"/><text x="70" y="1404" font-family="Georgia, 'Times New Roman', serif" font-size="15" fill="#2a1c14">Raspberry Mojito</text><text x="430" y="1404" text-anchor="end" font-family="Helvetica, Arial, sans-serif" font-size="15" font-weight="700" fill="#6b3e2e">Rs 580</text><line x1="198.4" y1="1402" x2="370.8" y2="1402" stroke="#c4a484" stroke-width="1" stroke-dasharray="2 3"/><text x="70" y="1430" font-family="Georgia, 'Times New Roman', serif" font-size="15" fill="#2a1c14">Strawberry Mojito</text><text x="430" y="1430" text-anchor="end" font-family="Helvetica, Arial, sans-serif" font-size="15" font-weight="700" fill="#6b3e2e">Rs 580</text><line x1="205.8" y1="1428" x2="370.8" y2="1428" stroke="#c4a484" stroke-width="1" stroke-dasharray="2 3"/><text x="470" y="1404" font-family="Georgia, 'Times New Roman', serif" font-size="15" fill="#2a1c14">Blueberry Mojito</text><text x="830" y="1404" text-anchor="end" font-family="Helvetica, Arial, sans-serif" font-size="15" font-weight="700" fill="#6b3e2e">Rs 580</text><line x1="598.4" y1="1402" x2="770.8" y2="1402" stroke="#c4a484" stroke-width="1" stroke-dasharray="2 3"/><text x="470" y="1430" font-family="Georgia, 'Times New Roman', serif" font-size="15" fill="#2a1c14">Passion Fruit Mojito</text><text x="830" y="1430" text-anchor="end" font-family="Helvetica, Arial, sans-serif" font-size="15" font-weight="700" fill="#6b3e2e">Rs 600</text><line x1="628" y1="1428" x2="770.8" y2="1428" stroke="#c4a484" stroke-width="1" stroke-dasharray="2 3"/><rect x="70" y="1470" width="220" height="110" rx="8" fill="#e8dcc8" stroke="#c9a27a"/><image href="https://images.unsplash.com/photo-1551538827-9c037cb4f32a?auto=format&amp;fit=crop&amp;w=440&amp;h=220&amp;q=60" x="70" y="1470" width="220" height="110" preserveAspectRatio="xMidYMid slice"/><rect x="320" y="1470" width="220" height="110" rx="8" fill="#e8dcc8" stroke="#c9a27a"/><image href="https://images.unsplash.com/photo-1513558161293-cdaf765ed2fd?auto=format&amp;fit=crop&amp;w=440&amp;h=220&amp;q=60" x="320" y="1470" width="220" height="110" preserveAspectRatio="xMidYMid slice"/><rect x="570" y="1470" width="220" height="110" rx="8" fill="#e8dcc8" stroke="#c9a27a"/><image href="https://images.unsplash.com/photo-1544145945-f90425340c7e?auto=format&amp;fit=crop&amp;w=440&amp;h=220&amp;q=60" x="570" y="1470" width="220" height="110" preserveAspectRatio="xMidYMid slice"/><text x="70" y="1632" font-family="'Brush Script MT', 'Segoe Script', Georgia, cursive" font-size="34" fill="#8b3a2a">Ice Cream</text><line x1="70" y1="1642" x2="830" y2="1642" stroke="#c9a27a" stroke-width="1.5"/><text x="70" y="1678" font-family="Georgia, 'Times New Roman', serif" font-size="15" fill="#2a1c14">Vanilla</text><text x="430" y="1678" text-anchor="end" font-family="Helvetica, Arial, sans-serif" font-size="15" font-weight="700" fill="#6b3e2e">Rs 350</text><line x1="131.8" y1="1676" x2="370.8" y2="1676" stroke="#c4a484" stroke-width="1" stroke-dasharray="2 3"/><text x="70" y="1704" font-family="Georgia, 'Times New Roman', serif" font-size="15" fill="#2a1c14">Strawberry</text><text x="430" y="1704" text-anchor="end" font-family="Helvetica, Arial, sans-serif" font-size="15" font-weight="700" fill="#6b3e2e">Rs 350</text><line x1="154" y1="1702" x2="370.8" y2="1702" stroke="#c4a484" stroke-width="1" stroke-dasharray="2 3"/><text x="470" y="1678" font-family="Georgia, 'Times New Roman', serif" font-size="15" fill="#2a1c14">Chocolate</text><text x="830" y="1678" text-anchor="end" font-family="Helvetica, Arial, sans-serif" font-size="15" font-weight="700" fill="#6b3e2e">Rs 380</text><line x1="546.6" y1="1676" x2="770.8" y2="1676" stroke="#c4a484" stroke-width="1" stroke-dasharray="2 3"/><text x="470" y="1704" font-family="Georgia, 'Times New Roman', serif" font-size="15" fill="#2a1c14">Pistachio</text><text x="830" y="1704" text-anchor="end" font-family="Helvetica, Arial, sans-serif" font-size="15" font-weight="700" fill="#6b3e2e">Rs 400</text><line x1="546.6" y1="1702" x2="770.8" y2="1702" stroke="#c4a484" stroke-width="1" stroke-dasharray="2 3"/><rect x="70" y="1744" width="220" height="110" rx="8" fill="#e8dcc8" stroke="#c9a27a"/><image href="https://images.unsplash.com/photo-1563805042-7684c019e1cb?auto=format&amp;fit=crop&amp;w=440&amp;h=220&amp;q=60" x="70" y="1744" width="220" height="110" preserveAspectRatio="xMidYMid slice"/><rect x="320" y="1744" width="220" height="110" rx="8" fill="#e8dcc8" stroke="#c9a27a"/><image href="https://images.unsplash.com/photo-1497034825429-c343d7c6a68f?auto=format&amp;fit=crop&amp;w=440&amp;h=220&amp;q=60" x="320" y="1744" width="220" height="110" preserveAspectRatio="xMidYMid slice"/><rect x="570" y="1744" width="220" height="110" rx="8" fill="#e8dcc8" stroke="#c9a27a"/><image href="https://images.unsplash.com/photo-1562376552-0d160a2f238d?auto=format&amp;fit=crop&amp;w=440&amp;h=220&amp;q=60" x="570" y="1744" width="220" height="110" preserveAspectRatio="xMidYMid slice"/>
  <text x="450" y="1445" text-anchor="middle" font-family="Helvetica, Arial, sans-serif" font-size="12" fill="#7a5a45">thebrewingcottage.com · Menu 2/3</text>
</svg>