<?xml version="1.0" encoding="UTF-8"?>
<svg xmlns="http://www.w3.org/2000/svg" xmlns:xlink="http://www.w3.org/1999/xlink" width="900" height="1500" viewBox="0 0 900 1500">
  <defs>
    <linearGradient id="paper" x1="0" y1="0" x2="0" y2="1">
      <stop offset="0%" stop-color="#f7f0e4"/>
      <stop offset="100%" stop-color="#ebe0cf"/>
    </linearGradient>
    <pattern id="wood" width="60" height="24" patternUnits="userSpaceOnUse">
      <rect width="60" height="24" fill="#3a2418"/>
      <path d="M0 12 Q15 6 30 12 T60 12" fill="none" stroke="#4d3222" stroke-width="3"/>
    </pattern>
  </defs>
  <rect width="900" height="1500" fill="url(#wood)"/>
  <rect x="28" y="28" width="844" height="1444" rx="6" fill="url(#paper)" stroke="#d4c2a8" stroke-width="3"/>
  <rect x="40" y="40" width="820" height="1420" fill="none" stroke="#c9a27a" stroke-width="1.5" stroke-dasharray="4 3"/>
  <image href="../brand/brewing-cottage-logo.png" x="60" y="58" width="92" height="92" preserveAspectRatio="xMidYMid meet"/>
  <text x="170" y="95" font-family="Georgia, serif" font-size="34" font-weight="700" fill="#3d2418">The Brewing Cottage</text>
  <text x="170" y="122" font-family="Helvetica, Arial, sans-serif" font-size="14" fill="#7a5a45">Coffee · Comfort Food · Cottage Vibes</text>
  <rect x="520" y="62" width="310" height="78" rx="6" fill="#8b3a2a"/>
  <text x="675" y="92" text-anchor="middle" font-family="Helvetica, Arial, sans-serif" font-size="13" fill="#f7f0e4">+92 312 8671544</text>
  <text x="675" y="114" text-anchor="middle" font-family="Helvetica, Arial, sans-serif" font-size="10.5" fill="#f0dcc8">Shop No. 02, Sector B, Family B Park, DHA </text>
  <text x="675" y="130" text-anchor="middle" font-family="Helvetica, Arial, sans-serif" font-size="10.5" fill="#f0dcc8">Phase 2, Islamabad</text>
  <text x="70" y="210" font-family="'Brush Script MT', 'Segoe Script', Georgia, cursive" font-size="34" fill="#8b3a2a">Appetizers</text><line x1="70" y1="220" x2="830" y2="220" stroke="#c9a27a" stroke-width="1.5"/><text x="70" y="256" font-family="Georgia, 'Times New Roman', serif" font-size="15" fill="#2a1c14">Chipotle Loaded Fries</text><text x="430" y="256" text-anchor="end" font-family="Helvetica, Arial, sans-serif" font-size="15" font-weight="700" fill="#6b3e2e">Rs 650</text><line x1="235.4" y1="254" x2="370.8" y2="254" stroke="#c4a484" stroke-width="1" stroke-dasharray="2 3"/><text x="70" y="282" font-family="Georgia, 'Times New Roman', serif" font-size="15" fill="#2a1c14">Chunky Dynamite Fries</text><text x="430" y="282" text-anchor="end" font-family="Helvetica, Arial, sans-serif" font-size="15" font-weight="700" fill="#6b3e2e">Rs 650</text><line x1="235.4" y1="280" x2="370.8" y2="280" stroke="#c4a484" stroke-width="1" stroke-dasharray="2 3"/><text x="70" y="308" font-family="Georgia, 'Times New Roman', serif" font-size="15" fill="#2a1c14">Dragon Fries</text><text x="430" y="308" text-anchor="end" font-family="Helvetica, Arial, sans-serif" font-size="15" font-weight="700" fill="#6b3e2e">Rs 680</text><line x1="168.8" y1="306" x2="370.8" y2="306" stroke="#c4a484" stroke-width="1" stroke-dasharray="2 3"/><text x="470" y="256" font-family="Georgia, 'Times New Roman', serif" font-size="15" fill="#2a1c14">Curly Fries</text><text x="830" y="256" text-anchor="end" font-family="Helvetica, Arial, sans-serif" font-size="15" font-weight="700" fill="#6b3e2e">Rs 450</text><line x1="561.4" y1="254" x2="770.8" y2="254" stroke="#c4a484" stroke-width="1" stroke-dasharray="2 3"/><text x="470" y="282" font-family="Georgia, 'Times New Roman', serif" font-size="15" fill="#2a1c14">Waffle Fries</text><text x="830" y="282" text-anchor="end" font-family="Helvetica, Arial, sans-serif" font-size="15" font-weight="700" fill="#6b3e2e">Rs 480</text><line x1="568.8" y1="280" x2="770.8" y2="280" stroke="#c4a484" stroke-width="1" stroke-dasharray="2 3"/><text x="470" y="308" font-family="Georgia, 'Times New Roman', serif" font-size="15" fill="#2a1c14">Classic French Fries</text><text x="830" y="308" text-anchor="end" font-family="Helvetica, Arial, sans-serif" font-size="15" font-weight="700" fill="#6b3e2e">Rs 400</text><line x1="628" y1="306" x2="770.8" y2="306" stroke="#c4a484" stroke-width="1" stroke-dasharray="2 3"/><rect x="70" y="348" width="220" height="110" rx="8" fill="#e8dcc8" stroke="#c9a27a"/><image href="https://images.unsplash.com/photo-1573080496219-bb080dd4f877?auto=format&amp;fit=crop&amp;w=440&amp;h=220&amp;q=60" x="70" y="348" width="220" height="110" preserveAspectRatio="xMidYMid slice"/><rect x="320" y="348" width="220" height="110" rx="8" fill="#e8dcc8" stroke="#c9a27a"/><image href="https://images.unsplash.com/photo-1630384060421-cb20d0e0649d?auto=format&amp;fit=crop&amp;w=440&amp;h=220&amp;q=60" x="320" y="348" width="220" height="110" preserveAspectRatio="xMidYMid slice"/><rect x="570" y="348" width="220" height="110" rx="8" fill="#e8dcc8" stroke="#c9a27a"/><image href="https://images.unsplash.com/photo-1541592106381-b31e9677c0e5?auto=format&amp;fit=crop&amp;w=440&amp;h=220&amp;q=60" x="570" y="348" width="220" height="110" preserveAspectRatio="xMidYMid slice"/><text x="70" y="510" font-family="'Brush Script MT', 'Segoe Script', Georgia, cursive" font-size="34" fill="#8b3a2a">Wings</text><line x1="70" y1="520" x2="830" y2="520" stroke="#c9a27a" stroke-width="1.5"/><text x="70" y="556" font-family="Georgia, 'Times New Roman', serif" font-size="15" fill="#2a1c14">Habanero Wings</text><text x="430" y="556" text-anchor="end" font-family="Helvetica, Arial, sans-serif" font-size="15" font-weight="700" fill="#6b3e2e">Rs 850</text><line x1="183.60000000000002" y1="554" x2="370.8" y2="554" stroke="#c4a484" stroke-width="1" stroke-dasharray="2 3"/><text x="70" y="582" font-family="Georgia, 'Times New Roman', serif" font-size="15" fill="#2a1c14">BBQ Wings</text><text x="430" y="582" text-anchor="end" font-family="Helvetica, Arial, sans-serif" font-size="15" font-weight="700" fill="#6b3e2e">Rs 820</text><line x1="146.60000000000002" y1="580" x2="370.8" y2="580" stroke="#c4a484" stroke-width="1" stroke-dasharray="2 3"/><text x="470" y="556" font-family="Georgia, 'Times New Roman', serif" font-size="15" fill="#2a1c14">Honey Chili Wings</text><text x="830" y="556" text-anchor="end" font-family="Helvetica, Arial, sans-serif" font-size="15" font-weight="700" fill="#6b3e2e">Rs 840</text><line x1="605.8" y1="554" x2="770.8" y2="554" stroke="#c4a484" stroke-width="1" stroke-dasharray="2 3"/><rect x="70" y="622" width="220" height="110" rx="8" fill="#e8dcc8" stroke="#c9a27a"/><image href="https://images.unsplash.com/photo-1527477396000-e27163b481c2?auto=format&amp;fit=crop&amp;w=440&amp;h=220&amp;q=60" x="70" y="622" width="220" height="110" preserveAspectRatio="xMidYMid slice"/><rect x="320" y="622" width="220" height="110" rx="8" fill="#e8dcc8" stroke="#c9a27a"/><image href="https://images.unsplash.com/photo-1608039829572-78524f79c4c7?auto=format&amp;fit=crop&amp;w=440&amp;h=220&amp;q=60" x="320" y="622" width="220" height="110" preserveAspectRatio="xMidYMid slice"/><rect x="570" y="622" width="220" height="110" rx="8" fill="#e8dcc8" stroke="#c9a27a"/><image href="https://images.unsplash.com/photo-1567620832903-9fc6debc209f?auto=format&amp;fit=crop&amp;w=440&amp;h=220&amp;q=60" x="570" y="622" width="220" height="110" preserveAspectRatio="xMidYMid slice"/><text x="70" y="784" font-family="'Brush Script MT', 'Segoe Script', Georgia, cursive" font-size="34" fill="#8b3a2a">Paninis</text><line x1="70" y1="794" x2="830" y2="794" stroke="#c9a27a" stroke-width="1.5"/><text x="70" y="830" font-family="Georgia, 'Times New Roman', serif" font-size="15" fill="#2a1c14">Pesto Chicken Panini</text><text x="430" y="830" text-anchor="end" font-family="Helvetica, Arial, sans-serif" font-size="15" font-weight="700" fill="#6b3e2e">Rs 780</text><line x1="228" y1="828" x2="370.8" y2="828" stroke="#c4a484" stroke-width="1" stroke-dasharray="2 3"/><text x="70" y="856" font-family="Georgia, 'Times New Roman', serif" font-size="15" fill="#2a1c14">BBQ Chicken Panini</text><text x="430" y="856" text-anchor="end" font-family="Helvetica, Arial, sans-serif" font-size="15" font-weight="700" fill="#6b3e2e">Rs 780</text><line x1="213.20000000000002" y1="854" x2="370.8" y2="854" stroke="#c4a484" stroke-width="1" stroke-dasharray="2 3"/><text x="470" y="830" font-family="Georgia, 'Times New Roman', serif" font-size="15" fill="#2a1c14">Parmesan Chicken Panini</text><text x="830" y="830" text-anchor="end" font-family="Helvetica, Arial, sans-serif" font-size="15" font-weight="700" fill="#6b3e2e">Rs 800</text><line x1="650.2" y1="828" x2="770.8" y2="828" stroke="#c4a484" stroke-width="1" stroke-dasharray="2 3"/><rect x="70" y="896" width="220" height="110" rx="8" fill="#e8dcc8" stroke="#c9a27a"/><image href="https://images.unsplash.com/photo-1509440159596-0249088772ff?auto=format&amp;fit=crop&amp;w=440&amp;h=220&amp;q=60" x="70" y="896" width="220" height="110" preserveAspectRatio="xMidYMid slice"/><rect x="320" y="896" width="220" height="110" rx="8" fill="#e8dcc8" stroke="#c9a27a"/><image href="https://images.unsplash.com/photo-1528736235302-52922df5c122?auto=format&amp;fit=crop&amp;w=440&amp;h=220&amp;q=60" x="320" y="896" width="220" height="110" preserveAspectRatio="xMidYMid slice"/><rect x="570" y="896" width="220" height="110" rx="8" fill="#e8dcc8" stroke="#c9a27a"/><image href="https://images.unsplash.com/photo-1509722747041-616f39b57569?auto=format&amp;fit=crop&amp;w=440&amp;h=220&amp;q=60" x="570" y="896" width="220" height="110" preserveAspectRatio="xMidYMid slice"/><text x="70" y="1058" font-family="'Brush Script MT', 'Segoe Script', Georgia, cursive" font-size="34" fill="#8b3a2a">Sandwiches</text><line x1="70" y1="1068" x2="830" y2="1068" stroke="#c9a27a" stroke-width="1.5"/><text x="70" y="1104" font-family="Georgia, 'Times New Roman', serif" font-size="15" fill="#2a1c14">Classic Club Sandwich</text><text x="430" y="1104" text-anchor="end" font-family="Helvetica, Arial, sans-serif" font-size="15" font-weight="700" fill="#6b3e2e">Rs 750</text><line x1="235.4" y1="1102" x2="370.8" y2="1102" stroke="#c4a484" stroke-width="1" stroke-dasharray="2 3"/><text x="70" y="1130" font-family="Georgia, 'Times New Roman', serif" font-size="15" fill="#2a1c14">Grilled Chicken Sandwich</text><text x="430" y="1130" text-anchor="end" font-family="Helvetica, Arial, sans-serif" font-size="15" font-weight="700" fill="#6b3e2e">Rs 720</text><line x1="257.6" y1="1128" x2="370.8" y2="1128" stroke="#c4a484" stroke-width="1" stroke-dasharray="2 3"/><text x="470" y="1104" font-family="Georgia, 'Times New Roman', serif" font-size="15" fill="#2a1c14">The Brewing Cottage Speci…</text><text x="830" y="1104" text-anchor="end" font-family="Helvetica, Arial, sans-serif" font-size="15" font-weight="700" fill="#6b3e2e">Rs 850</text><line x1="672.4" y1="1102" x2="770.8" y2="1102" stroke="#c4a484" stroke-width="1" stroke-dasharray="2 3"/><rect x="70" y="1170" width="220" height="110" rx="8" fill="#e8dcc8" stroke="#c9a27a"/><image href="https://images.unsplash.com/photo-1550547660-d9450f859349?auto=format&amp;fit=crop&amp;w=440&amp;h=220&amp;q=60" x="70" y="1170" width="220" height="110" preserveAspectRatio="xMidYMid slice"/><rect x="320" y="1170" width="220" height="110" rx="8" fill="#e8dcc8" stroke="#c9a27a"/><image href="https://images.unsplash.com/photo-1606755962773-d324e0a13086?auto=format&amp;fit=crop&amp;w=440&amp;h=220&amp;q=60" x="320" y="1170" width="220" height="110" preserveAspectRatio="xMidYMid slice"/><rect x="570" y="1170" width="220" height="110" rx="8" fill="#e8dcc8" stroke="#c9a27a"/><image href="https://images.unsplash.com/photo-1567234669003-dce7a7a88821?auto=format&amp;fit=crop&amp;w=440&amp;h=220&amp;q=60" x="570" y="1170" width="220" height="110" preserveAspectRatio="xMidYMid slice"/><text x="70" y="1332" font-family="'Brush Script MT', 'Segoe Script', Georgia, cursive" font-size="34" fill="#8b3a2a">Beef Burgers</text><line x1="70" y1="1342" x2="830" y2="1342" stroke="#c9a27a" stroke-width="1.5"/><text x="70" y="1378" font-family="Georgia, 'Times New Roman', serif" font-size="15" fill="#2a1c14">Cowboy Burger</text><text x="430" y="1378" text-anchor="end" font-family="Helvetica, Arial, sans-serif" font-size="15" font-weight="700" fill="#6b3e2e">Rs 1100</text><line x1="176.2" y1="1376" x2="362.6" y2="1376" stroke="#c4a484" stroke-width="1" stroke-dasharray="2 3"/><text x="70" y="1404" font-family="Georgia, 'Times New Roman', serif" font-size="15" fill="#2a1c14">The Bad Boy Burger</text><text x="430" y="1404" text-anchor="end" font-family="Helvetica, Arial, sans-serif" font-size="15" font-weight="700" fill="#6b3e2e">Rs 1200</text><line x1="213.20000000000002" y1="1402" x2="362.6" y2="1402" stroke="#c4a484" stroke-width="1" stroke-dasharray="2 3"/><text x="470" y="1378" font-family="Georgia, 'Times New Roman', serif" font-size="15" fill="#2a1c14">Street Burger</text><text x="830" y="1378" text-anchor="end" font-family="Helvetica, Arial, sans-serif" font-size="15" font-weight="700" fill="#6b3e2e">Rs 1050</text><line x1="576.2" y1="1376" x2="762.6" y2="1376" stroke="#c4a484" stroke-width="1" stroke-dasharray="2 3"/><text x="470" y="1404" font-family="Georgia, 'Times New Roman', serif" font-size="15" fill="#2a1c14">Swiss Mushroom Burger</text><text x="830" y="1404" text-anchor="end" font-family="Helvetica, Arial, sans-serif" font-size="15" font-weight="700" fill="#6b3e2e">Rs 1150</text><line x1="635.4" y1="1402" x2="762.6" y2="1402" stroke="#c4a484" stroke-width="1" stroke-dasharray="2 3"/><rect x="70" y="1444" width="220" height="110" rx="8" fill="#e8dcc8" stroke="#c9a27a"/><image href="https://images.unsplash.com/photo-1568901346375-23c9450c58cd?auto=format&amp;fit=crop&amp;w=440&amp;h=220&amp;q=60" x="70" y="1444" width="220" height="110" preserveAspectRatio="xMidYMid slice"/><rect x="320" y="1444" width="220" height="110" rx="8" fill="#e8dcc8" stroke="#c9a27a"/><image href="https://images.unsplash.com/photo-1553979459-d2229ba7433b?auto=format&amp;fit=crop&amp;w=440&amp;h=220&amp;q=60" x="320" y="1444" width="220" height="110" preserveAspectRatio="xMidYMid slice"/><rect x="570" y="1444" width="220" height="110" rx="8" fill="#e8dcc8" stroke="#c9a27a"/><image href="https://images.unsplash.com/photo-1572802419224-296b0aeee0d9?auto=format&amp;fit=crop&amp;w=440&amp;h=220&amp;q=60" x="570" y="1444" width="220" height="110" preserveAspectRatio="xMidYMid slice"/><text x="70" y="1606" font-family="'Brush Script MT', 'Segoe Script', Georgia, cursive" font-size="34" fill="#8b3a2a">Chicken Burgers</text><line x1="70" y1="1616" x2="830" y2="1616" stroke="#c9a27a" stroke-width="1.5"/><text x="70" y="1652" font-family="Georgia, 'Times New Roman', serif" font-size="15" fill="#2a1c14">Buffalo Chicken Burger</text><text x="430" y="1652" text-anchor="end" font-family="Helvetica, Arial, sans-serif" font-size="15" font-weight="700" fill="#6b3e2e">Rs 950</text><line x1="242.8" y1="1650" x2="370.8" y2="1650" stroke="#c4a484" stroke-width="1" stroke-dasharray="2 3"/><text x="70" y="1678" font-family="Georgia, 'Times New Roman', serif" font-size="15" fill="#2a1c14">Grilled Chicken Burger</text><text x="430" y="1678" text-anchor="end" font-family="Helvetica, Arial, sans-serif" font-size="15" font-weight="700" fill="#6b3e2e">Rs 900</text><line x1="242.8" y1="1676" x2="370.8" y2="1676" stroke="#c4a484" stroke-width="1" stroke-dasharray="2 3"/><text x="470" y="1652" font-family="Georgia, 'Times New Roman', serif" font-size="15" fill="#2a1c14">Dragon Chicken Burger</text><text x="830" y="1652" text-anchor="end" font-family="Helvetica, Arial, sans-serif" font-size="15" font-weight="700" fill="#6b3e2e">Rs 980</text><line x1="635.4" y1="1650" x2="770.8" y2="1650" stroke="#c4a484" stroke-width="1" stroke-dasharray="2 3"/><text x="470" y="1678" font-family="Georgia, 'Times New Roman', serif" font-size="15" fill="#2a1c14">Crispy Chicken Burger</text><text x="830" y="1678" text-anchor="end" font-family="Helvetica, Arial, sans-serif" font-size="15" font-weight="700" fill="#6b3e2e">Rs 920</text><line x1="635.4" y1="1676" x2="770.8" y2="1676" stroke="#c4a484" stroke-width="1" stroke-dasharray="2 3"/><rect x="70" y="1718" width="220" height="110" rx="8" fill="#e8dcc8" stroke="#c9a27a"/><image href="https://images.unsplash.com/photo-1606755962773-d324e0a13086?auto=format&amp;fit=crop&amp;w=440&amp;h=220&amp;q=60" x="70" y="1718" width="220" height="110" preserveAspectRatio="xMidYMid slice"/><rect x="320" y="1718" width="220" height="110" rx="8" fill="#e8dcc8" stroke="#c9a27a"/><image href="https://images.unsplash.com/photo-1606755962773-d324e0a13086?auto=format&amp;fit=crop&amp;w=440&amp;h=220&amp;q=60" x="320" y="1718" width="220" height="110" preserveAspectRatio="xMidYMid slice"/><rect x="570" y="1718" width="220" height="110" rx="8" fill="#e8dcc8" stroke="#c9a27a"/><image href="https://images.unsplash.com/photo-1562967916-eb82221dfb92?auto=format&amp;fit=crop&amp;w=440&amp;h=220&amp;q=60" x="570" y="1718" width="220" height="110" preserveAspectRatio="xMidYMid slice"/>
  <text x="450" y="1445" text-anchor="middle" font-family="Helvetica, Arial, sans-serif" font-size="12" fill="#7a5a45">thebrewingcottage.com · Menu 1/3</text>
</svg>