<?xml version="1.0" encoding="UTF-8"?>
<svg xmlns="http://www.w3.org/2000/svg" xmlns:xlink="http://www.w3.org/1999/xlink" width="900" height="1500" viewBox="0 0 900 1500">
  <defs>
    <linearGradient id="paper" x1="0" y1="0" x2="0" y2="1">
      <stop offset="0%" stop-color="#f7f0e4"/>
      <stop offset="100%" stop-color="#ebe0cf"/>
    </linearGradient>
    <pattern id="wood" width="60" height="24" patternUnits="userSpaceOnUse">
      <rect width="60" height="24" fill="#3a2418"/>
      <path d="M0 12 Q15 6 30 12 T60 12" fill="none" stroke="#4d3222" stroke-width="3"/>
    </pattern>
  </defs>
  <rect width="900" height="1500" fill="url(#wood)"/>
  <rect x="28" y="28" width="844" height="1444" rx="6" fill="url(#paper)" stroke="#d4c2a8" stroke-width="3"/>
  <rect x="40" y="40" width="820" height="1420" fill="none" stroke="#c9a27a" stroke-width="1.5" stroke-dasharray="4 3"/>
  <image href="../brand/brewing-cottage-logo.png" x="60" y="58" width="92" height="92" preserveAspectRatio="xMidYMid meet"/>
  <text x="170" y="95" font-family="Georgia, serif" font-size="34" font-weight="700" fill="#3d2418">The Brewing Cottage</text>
  <text x="170" y="122" font-family="Helvetica, Arial, sans-serif" font-size="14" fill="#7a5a45">Coffee · Comfort Food · Cottage Vibes</text>
  <rect x="520" y="62" width="310" height="78" rx="6" fill="#8b3a2a"/>
  <text x="675" y="92" text-anchor="middle" font-family="Helvetica, Arial, sans-serif" font-size="13" fill="#f7f0e4">+92 312 8671544</text>
  <text x="675" y="114" text-anchor="middle" font-family="Helvetica, Arial, sans-serif" font-size="10.5" fill="#f0dcc8">Shop No. 02, Sector B, Family B Park, DHA </text>
  <text x="675" y="130" text-anchor="middle" font-family="Helvetica, Arial, sans-serif" font-size="10.5" fill="#f0dcc8">Phase 2, Islamabad</text>
  <text x="70" y="210" font-family="'Brush Script MT', 'Segoe Script', Georgia, cursive" font-size="34" fill="#8b3a2a">Ice Cream Shakes</text><line x1="70" y1="220" x2="830" y2="220" stroke="#c9a27a" stroke-width="1.5"/><text x="70" y="256" font-family="Georgia, 'Times New Roman', serif" font-size="15" fill="#2a1c14">Vanilla Shake</text><text x="430" y="256" text-anchor="end" font-family="Helvetica, Arial, sans-serif" font-size="15" font-weight="700" fill="#6b3e2e">Rs 480</text><line x1="176.2" y1="254" x2="370.8" y2="254" stroke="#c4a484" stroke-width="1" stroke-dasharray="2 3"/><text x="70" y="282" font-family="Georgia, 'Times New Roman', serif" font-size="15" fill="#2a1c14">Strawberry Shake</text><text x="430" y="282" text-anchor="end" font-family="Helvetica, Arial, sans-serif" font-size="15" font-weight="700" fill="#6b3e2e">Rs 500</text><line x1="198.4" y1="280" x2="370.8" y2="280" stroke="#c4a484" stroke-width="1" stroke-dasharray="2 3"/><text x="470" y="256" font-family="Georgia, 'Times New Roman', serif" font-size="15" fill="#2a1c14">Chocolate Shake</text><text x="830" y="256" text-anchor="end" font-family="Helvetica, Arial, sans-serif" font-size="15" font-weight="700" fill="#6b3e2e">Rs 520</text><line x1="591" y1="254" x2="770.8" y2="254" stroke="#c4a484" stroke-width="1" stroke-dasharray="2 3"/><text x="470" y="282" font-family="Georgia, 'Times New Roman', serif" font-size="15" fill="#2a1c14">Pistachio Shake</text><text x="830" y="282" text-anchor="end" font-family="Helvetica, Arial, sans-serif" font-size="15" font-weight="700" fill="#6b3e2e">Rs 550</text><line x1="591" y1="280" x2="770.8" y2="280" stroke="#c4a484" stroke-width="1" stroke-dasharray="2 3"/><rect x="70" y="322" width="220" height="110" rx="8" fill="#e8dcc8" stroke="#c9a27a"/><image href="https://images.unsplash.com/photo-1572490122747-3968b75cc699?auto=format&amp;fit=crop&amp;w=440&amp;h=220&amp;q=60" x="70" y="322" width="220" height="110" preserveAspectRatio="xMidYMid slice"/><rect x="320" y="322" width="220" height="110" rx="8" fill="#e8dcc8" stroke="#c9a27a"/><image href="https://images.unsplash.com/photo-1623065422902-30a2d299bbe4?auto=format&amp;fit=crop&amp;w=440&amp;h=220&amp;q=60" x="320" y="322" width="220" height="110" preserveAspectRatio="xMidYMid slice"/><rect x="570" y="322" width="220" height="110" rx="8" fill="#e8dcc8" stroke="#c9a27a"/><image href="https://images.unsplash.com/photo-1577805947697-89e18249d767?auto=format&amp;fit=crop&amp;w=440&amp;h=220&amp;q=60" x="570" y="322" width="220" height="110" preserveAspectRatio="xMidYMid slice"/><text x="70" y="484" font-family="'Brush Script MT', 'Segoe Script', Georgia, cursive" font-size="34" fill="#8b3a2a">Slush</text><line x1="70" y1="494" x2="830" y2="494" stroke="#c9a27a" stroke-width="1.5"/><text x="70" y="530" font-family="Georgia, 'Times New Roman', serif" font-size="15" fill="#2a1c14">Blue Lagoon Slush</text><text x="430" y="530" text-anchor="end" font-family="Helvetica, Arial, sans-serif" font-size="15" font-weight="700" fill="#6b3e2e">Rs 450</text><line x1="205.8" y1="528" x2="370.8" y2="528" stroke="#c4a484" stroke-width="1" stroke-dasharray="2 3"/><text x="470" y="530" font-family="Georgia, 'Times New Roman', serif" font-size="15" fill="#2a1c14">Green Apple Slush</text><text x="830" y="530" text-anchor="end" font-family="Helvetica, Arial, sans-serif" font-size="15" font-weight="700" fill="#6b3e2e">Rs 450</text><line x1="605.8" y1="528" x2="770.8" y2="528" stroke="#c4a484" stroke-width="1" stroke-dasharray="2 3"/><rect x="70" y="570" width="220" height="110" rx="8" fill="#e8dcc8" stroke="#c9a27a"/><image href="https://images.unsplash.com/photo-1513558161293-cdaf765ed2fd?auto=format&amp;fit=crop&amp;w=440&amp;h=220&amp;q=60" x="70" y="570" width="220" height="110" preserveAspectRatio="xMidYMid slice"/><rect x="320" y="570" width="220" height="110" rx="8" fill="#e8dcc8" stroke="#c9a27a"/><image href="https://images.unsplash.com/photo-1622597467836-f3285f2131b8?auto=format&amp;fit=crop&amp;w=440&amp;h=220&amp;q=60" x="320" y="570" width="220" height="110" preserveAspectRatio="xMidYMid slice"/>
  <text x="450" y="1445" text-anchor="middle" font-family="Helvetica, Arial, sans-serif" font-size="12" fill="#7a5a45">thebrewingcottage.com · Menu 3/3</text>
</svg>